# xmcd
#
# Track frame offsets:
#	150
#	19559
#	31450
#	47964
#	60670
#	73001
#	92338
#	104535
#
# Disc length: 1568 seconds
#
# Revision: 1
# Processed by: cddbd v1.5.2PL0 Copyright (c) Steve Scherf et al.
# Submitted via: audiograbber 1.83.01
#
DISCID=64061e08
DTITLE=elias - mi guitarra
DYEAR=2007
DGENRE=Mediterranean Roots
TTITLE0=agua de plata
TTITLE1=caffe di mama
TTITLE2=futbol con mi hermano
TTITLE3=la montana
TTITLE4=bossa del mundo
TTITLE5=mediterraneo
TTITLE6=sol en la manana
TTITLE7=tu mirada
EXTD=
EXTT0=
EXTT1=
EXTT2=
EXTT3=
EXTT4=
EXTT5=
EXTT6=
EXTT7=
PLAYORDER=
